<?xml version="1.0" encoding="utf-8"?>
<!-- Generator: Adobe Adobe Illustrator 24.2.0, SVG Export Plug-In . SVG Version: 6.00 Build 0)  -->
<svg version="1.1" xmlns="http://www.w3.org/2000/svg" xmlns:xlink="http://www.w3.org/1999/xlink" x="0px" y="0px" width="2048px"
	 height="2048px" viewBox="0 0 2048 2048" style="enable-background:new 0 0 2048 2048;" xml:space="preserve">
<style type="text/css">
	.st0{fill:#FFFFFF;stroke:#000000;stroke-miterlimit:10;}
	.st1{fill:#EBA0C3;}
	.st2{fill:#E9CFD8;stroke:#000000;stroke-miterlimit:10;}
</style>
<g id="Layer_1">
	<g id="Layer_11">
		<polygon class="st0" points="914.3,1093.1 904.3,1045.4 894.8,983.8 902.7,923.7 965.4,901.7 1005,941.4 1035.9,1028.7 
			1039.5,1100.6 1029.8,1156.6 1001,1178.6 959.5,1166 933.1,1128.4 		"/>
		<polyline class="st0" points="1098,955.2 1102.5,905.1 1129.2,861.2 1163.3,861.2 1207.6,911.9 1222,950.8 1242.5,1060.9 
			1222.2,1132.6 1184.9,1143.5 1148.7,1116.5 1124.1,1072.2 1105.6,1013.8 		"/>
	</g>
	<g id="Layer_3">
		<path class="st1" d="M789.5,734.4l-31.2,17.7l-56.6,47.7l-11.3,51.4l0.3,27.8l11.9,102.4l2.4,69.7l-4.7,117.3l-19.7,253.8
			l-11.1,77.4l-4.1,16.1l22.1,10.5l46.8,17.5l53.3,19.6l79.3,15.8l60.6,7.2l81,2.1h67.4l69.9-7.7l69.9-15.4l96.8-28.1l63.1-25.2
			l48.6-22.6l2-17l-21.3-132l-11.5-68.1l-6.9-70.1l-2.1-94.3l2-237.8l6.8-160.2l4.8-111.7l-22.3,16.4L1345,630l-30.3,11l-33.9,5.7
			l-34.5,0.6l-26.9-3.1l-21.2-9.9l-10.7-5.1l-41,45.7c0,0-55.8,30.6-67.8,35.7c-23.6,9.9-85.2,8.2-85.2,8.2s26.2,58.8,26.2,76.6
			c0,19.2-43.2,96.3-43.2,96.3l-30,19.4l-40.4,14.6l-42.6-7.4l-36.1-16.9l-26.1-36l-17.7-66.4"/>
	</g>
	<g id="Layer_2">
		<path class="st1" d="M520.1,1043.2c-1.8-40,26.8-118.5,26.8-118.5l21.8-52.6l23.5-34.7l10.9-29.1l10.3-27.8l6.3-28.8l3.3-26.8
			l5-17.5l10.3-11.3l11.6,11.6l3,25.5l1,26.8l9.6-9.3l8.3-23.5l14.2-15.6l13.9-10.9l13.2-4l11.6,11.3l-2.6,31.8l-10.6,29.1l15.9-5.6
			l19.2-14.2l19.9-6.3l10.9,12.9l-1,20.8l-14.9,28.1L725.9,836l-30.8,21.2l-11.6,14.9l3,19.5l21.5,21.5l20.8,17.5l12.2,19.5
			l0.7,19.5l-16.5,7.9l-18.5-5.6l-9.6-7.6l-13.9-22.3l-12.2,6.4l-8.3,18.2l-22.8,54.9l-5.6,51.9l10.6,48.3l21.2,41.4l22.8,23.2
			l37.2,17.3l29.6-13.9l-3.1,269.8l-35.4-23.4l-37.9-52l-36-31.4l-33.3-29.3l-23.1-27.4l-20.6-30.5l-20.9-41.9l-15.4-43.1l-9.5-39.4
			l-2.5-58.8"/>
	</g>
	<g id="Layer_4">
		<polygon class="st1" points="1398.1,1347.1 1421.1,1301.1 1458.6,1265.5 1497.6,1228.9 1530.4,1189.9 1554.8,1145.3 1577.4,1082 
			1580.2,1026.6 1577.4,981.5 1561.9,920.5 1547.8,865.1 1530,826.2 1507,791.9 1486.8,765.6 1459.2,723.4 1447.7,687.2 
			1440.9,652.3 1432.5,621.1 1416.2,607.9 1402.3,612 1395.6,637.4 1394.5,669.2 1382.7,652.3 1375.6,633.3 1361.7,617.1 
			1345.8,611.7 1328.9,621.1 1326.5,643.8 1354.9,827 1364.4,878.5 1387.8,858.5 1404,862.6 1423,900.2 1437.9,941.8 1445.3,987.2 
			1432.5,1043.1 1413.2,1082 1392.5,1104.4 1370.5,1117.9 1347.1,1126.4 		"/>
	</g>
	<g id="Layer_5">
		<polygon class="st2" points="899.6,921.3 863.5,918.1 835.3,906.1 817.3,887 799.9,860.2 788,824.4 784,797.3 785.5,771 
			790.2,745.3 798.1,728.3 771.7,743.9 755.5,744.2 734.1,754.4 722.3,762.5 717.9,765.6 719.7,745.7 725.5,729.1 726.2,710.6 
			721.5,698.3 706.7,691.1 689.3,703.4 672.4,724.7 663.3,744.2 655.4,737.4 651.8,720 647.8,703.4 635.2,694.7 627.6,707.4 
			622.1,727.6 617.1,753.3 609.5,759.8 588.5,751.5 551.7,725.1 528.2,688.1 515.5,660.1 502.8,607.9 505.1,565.3 526.8,517.4 
			550.8,488.9 577.8,473.1 595.5,465 569.3,456.4 540.8,435.2 517.8,402.7 501.1,367.9 490.1,305.3 503.3,243.4 533.1,185.4 
			574,142.3 624.5,109.4 673.3,102.8 722,113.3 755.8,134 782.7,164 796.7,152.4 828.7,127.8 903.7,94.8 957,87.4 1014.1,101 
			1067.5,141.6 1089.1,184 1092.5,242.8 1118.8,231.2 1169.1,214.8 1217.9,215.5 1271.3,226.1 1320.8,247.5 1357.1,289 1367,350.8 
			1348.9,401.1 1387.1,392.6 1433.3,412.7 1448.7,449 1449.4,500.9 1434.3,547.4 1408.3,583.6 1383.7,607.9 1364.2,617.1 
			1344.1,610 1330.1,624.3 1322.2,641.1 1304.8,642.8 1259,645.9 1228.6,645.2 1202.6,633.9 1184.8,624 1170.1,651.7 1138.6,675.6 
			1111.3,691 1088.6,704 1060.9,715.1 1042.5,716.4 1013.7,718.7 995.8,717.2 1002.6,734.3 1015.6,764 1021.2,796.7 1017,828.2 
			1004,856.4 985.5,878.7 959.5,901.1 927.4,915.3 		"/>
	</g>
	<polyline id="_x3C_Path_x3E_" class="st2" points="1447.9,659.2 1530.2,651.3 1567.3,657.4 1605.8,670.7 1639.5,689.1 
		1668.5,718.6 1694.6,771.2 1718.3,856.5 1729.6,949.6 1725.7,1040.2 1713.1,1141 1686.9,1230.1 1641.4,1289.7 1578.4,1323.1 
		1518.8,1334.8 1475.2,1333.8 1437.4,1327 1415.6,1321.7 1428.2,1299.9 1527.6,1193.2 1567,1185.8 1601.9,1133.4 1628.7,1037.5 
		1629.8,948.8 1615.7,863.1 1602.1,827.9 1565.3,783.9 1510.6,763.6 1486.4,764.5 1468.3,737.3 1449.4,696.1 	"/>
	<g id="Layer_7">
		<polyline class="st2" points="668.5,1519.5 645.5,1638.8 649.8,1673.1 668.8,1695.3 710.3,1715.1 753.8,1727.1 946.7,1754.9 
			1112,1749.6 1249.3,1733.7 1423.3,1677.3 1450.5,1648.2 1454.2,1617.3 1453.2,1587.2 1443.4,1545 1434.2,1503.7 1428.6,1483.2 
			1393.2,1505.1 1232.6,1564 1133.9,1582.2 993.1,1588.6 867.1,1579.2 758.6,1558.9 		"/>
	</g>
	<g id="Layer_6">
		<polyline class="st2" points="1248,1411.3 1226.2,1401.1 1186.5,1389.9 1156.4,1389.1 1130.3,1395.4 1108.3,1404.1 1094.5,1409.1 
			1077.5,1408.5 1051.3,1405.2 1020.6,1408.9 994.2,1415.2 966.7,1423.3 950.8,1431.4 928.8,1440.1 911.7,1449.7 892.6,1447.4 
			864.2,1431.9 837.5,1414.5 816.1,1394.6 805.4,1376.6 800.4,1337.8 807.5,1303.7 840,1275.9 892,1268 949.1,1275.9 1018.2,1295.3 
			1111.9,1307.4 1177.7,1294.7 1220.5,1267 1250.8,1239.6 1285.5,1223.1 1311.9,1227.6 1325.8,1248.3 1338.1,1281.2 1338.5,1315.4 
			1319.7,1350.7 1292.4,1385.4 1260.6,1408.7 		"/>
	</g>
	<g id="Layer_9">
		<polyline class="st0" points="940.1,908.4 904.5,920.5 900.5,946.6 897,1003.4 905.6,1047.3 919.4,1099.3 942.1,1142.6 
			971.4,1170.4 1001.2,1177.3 1021.9,1164.4 1033.9,1144.3 1042.8,1105 1040.2,1067.7 1036.8,1032.7 1024.7,988.8 1011.2,958.1 
			995.5,928.5 974.5,905.2 958.7,904.7 		"/>
	</g>
	<g id="Layer_10">
		<polyline class="st0" points="1148.1,857.3 1116.6,874.8 1099.6,919.9 1100.2,985.9 1121.2,1061.4 1145.3,1111.3 1166.2,1129.4 
			1189.2,1141.5 1217.6,1136.9 1237.4,1107 1244.3,1073.1 1242.3,1028.7 1232.2,985.3 1225.6,954.6 1211,925.3 1193.5,892.6 
			1172,868.8 		"/>
	</g>
	<g transform="translate(0.000000,2048.000000) scale(0.100000,-0.100000)">
		<path d="M9485,19653c-401-20-841-159-1210-382c-161-97-308-220-377-315l-50-68l-61,68c-228,256-343,346-584,456
			c-113,52-206,76-358,93c-308,35-576-27-865-201c-504-302-896-815-1058-1384c-41-143-49-184-68-335c-18-142-15-411,6-515
			c6-30,16-80,22-110c19-105,80-279,138-398c162-329,396-586,658-722c34-17,62-36,62-42c0-5-30-23-67-40c-123-56-218-124-322-234
			c-203-215-322-448-383-754c-17-86-17-441,0-535c7-38,18-97,24-130s19-91,30-130c11-38,22-79,25-90c2-11,8-29,13-40s20-52,35-91
			c79-216,265-488,437-638c131-115,346-247,490-301c68-25,73-34,59-103c-31-147-95-291-256-577c-108-193-281-527-361-698
			c-169-364-290-779-339-1167c-23-174-31-697-16-970c22-387,47-523,152-835c160-471,336-776,642-1110c102-111,306-304,408-387
			c101-81,350-291,388-327l34-32l-7-107c-4-59-9-120-12-137c-2-16-8-82-14-145s-15-153-20-200c-6-47-17-156-25-243s-21-191-29-230
			c-8-40-22-126-31-192c-19-146-43-303-55-370c-21-117-39-227-55-330c-9-60-25-146-35-190s-23-107-30-140c-6-33-16-76-22-95
			c-15-52-21-286-10-350c30-160,60-217,176-333c75-76,109-102,191-146c55-29,152-70,215-91c105-35,136-47,225-85c17-7,48-17,70-23
			c22-5,67-17,100-26c129-35,187-48,300-66c39-6,90-15,115-20s90-16,145-25c55-8,123-19,150-25c86-16,168-29,220-34
			c28-3,95-12,150-20s123-17,150-21c28-3,73-10,100-15c115-20,188-30,340-44c88-9,210-20,270-26c180-18,812-23,1155-11
			c580,22,828,37,922,57c14,3,64,10,110,15c150,18,231,27,358,44c69,9,159,20,200,25c234,28,530,79,709,121c318,75,843,241,1056,334
			c17,7,55,23,85,35c167,68,305,137,410,205c102,67,136,99,168,156c118,213,134,286,121,553c-8,161-25,281-61,416
			c-30,116-76,322-103,460c-13,69-37,184-53,255c-36,157-46,216-73,410c-40,289-37,269-74,460c-18,93-32,181-45,280
			c-16,127-35,239-61,356c-8,37-7,54,5,83c16,39,25,42,96,25c25-6,77-16,115-24c133-24,240-46,280-56c22-6,153-13,290-16
			c245-5,478,10,585,37c19,5,66,16,103,25c104,25,245,73,317,109c226,114,392,204,440,240c87,64,268,234,309,290
			c111,152,232,378,323,601c30,74,89,236,98,270c5,17,18,62,29,100c33,109,108,499,120,615c6,58,15,159,21,225s15,158,20,205
			c9,81,30,441,49,845c10,205-2,715-18,825c-6,36-15,106-21,155c-34,276-36,288-90,525c-37,164-191,644-213,667c-4,3-7,13-7,21
			c0,21-105,227-185,362c-162,275-273,395-500,545c-137,90-170,107-287,146c-233,78-371,112-603,149c-111,17-348,23-446,10
			c-112-15-273-42-386-67c-57-12-86-14-93-7c-6,6-17,48-25,93c-25,145-71,247-147,327c-75,79-145,99-245,68c-20-5-23-3-23,20
			c0,17,19,47,60,92c263,290,393,540,451,869c19,107,27,306,18,419c-14,159-34,238-95,364c-47,97-67,125-132,191
			c-120,121-250,188-430,221c-75,14-146,7-245-22c-20-6-40-8-43-5c-4,3,9,48,28,99c58,153,79,240,82,343c12,354-91,613-350,872
			c-200,201-393,303-799,422c-39,11-124,29-190,40c-387,64-690,46-1008-61c-130-43-279-109-358-158c-27-16-51-30-52-30
			c-2,0-3,87-2,193c0,127-4,211-13,247c-70,286-220,545-423,732c-112,103-168,142-299,211c-125,66-230,99-430,136
			C9754,19650,9575,19657,9485,19653z M9865,19505c159-34,337-109,454-192c209-149,411-417,488-648c54-160,66-255,62-480
			c-1-99,1-192,5-207c9-30,39-38,53-15c24,40,295,171,475,231c192,64,374,96,543,96c130,0,342-19,446-41c57-11,350-94,384-108
			c11-5,31-13,45-18c109-44,260-126,332-180c210-155,388-402,432-596c45-198,45-198,5-456c-15-98-53-203-129-357
			c-69-139-79-167-61-178c12-8,81,22,155,67c101,62,172,80,289,74c115-5,185-25,272-78c183-111,295-286,325-509c22-156-6-460-58-640
			c-67-232-231-482-455-696c-97-94-244-204-270-204c-8,0-41,12-73,28c-76,35-186,37-250,4c-75-38-134-123-149-215
			c-8-47-30-61-120-77c-38-7-92-16-120-22c-27-5-126-12-220-15c-308-10-521,31-760,147c-128,63-176,91-249,147c-64,49-83,47-71-7
			c4-19,33-59,72-101l66-69l-19-36c-31-57-152-188-249-270c-243-204-562-377-885-478c-181-57-430-87-563-68c-46,7-98,12-116,12
			c-26,0-45,11-91,53c-57,53-100,79-151,92c-45,11-40-17,15-82c217-257,219-260,279-379c222-442,146-957-192-1307
			c-79-82-208-183-302-236c-87-49-242-108-354-136c-136-33-347-35-468-5c-198,50-377,185-544,410c-83,111-149,259-189,424
			c-38,159-57,486-35,589c5,23,15,76,21,117c21,134,75,288,125,355c25,33,45,63,45,67c0,15-35,26-57,17c-13-5-61-39-107-76
			c-46-38-118-88-161-112c-75-43-79-44-168-45c-81-1-100-5-157-32c-36-17-99-57-140-87c-41-31-78-57-82-57c-13,0-9,22,17,95
			c49,134,67,224,67,329c0,89-3,105-29,155c-40,79-102,116-192,116c-166,0-321-143-465-428c-36-71-52-63-61,31
			c-20,190-74,316-147,341c-116,41-200-37-244-225c-18-81-54-316-54-360c0-45-15-55-60-39c-167,59-385,207-525,357
			c-183,196-316,440-388,713c-48,180-59,267-60,466c-2,286,29,433,135,646c47,94,152,248,216,317c56,60,170,143,252,183
			s275,113,299,113c6,0,19,4,29,9c9,5,37,15,62,22c74,20,130,56,130,83c0,13-7,27-16,30c-25,10-103,7-166-6c-51-10-69-10-128,6
			c-266,68-582,360-754,695c-123,241-197,592-182,866c34,597,348,1195,831,1580c183,146,325,234,461,283c259,96,557,105,794,24
			c220-75,391-187,598-392c200-198,239-219,255-142c13,62,150,196,319,310c263,179,689,352,993,402
			C9417,19532,9725,19535,9865,19505z M13925,14303c-4-32-13-94-21-138c-7-44-14-92-14-107c0-46-19-42-41,9c-11,26-34,76-50,111
			c-17,38-26,69-21,77c11,20,124,104,141,105C13929,14360,13931,14348,13925,14303z M14261,14252c43-69,67-158,90-336
			c19-151,55-352,80-441c16-57,86-240,111-289c11-22,33-59,48-81s47-74,71-115c52-89,123-190,206-291c153-190,360-507,441-679
			c120-255,171-405,298-895c76-292,84-327,104-450c87-552,21-1017-229-1616c-43-103-141-272-228-394c-66-92-106-141-294-360
			c-38-44-196-204-350-355c-304-297-395-397-482-532c-122-187-178-332-185-478c-4-86-2-98,18-122c13-17,31-28,45-28
			c32,0,40-18,54-120c15-103,36-226,76-440c18-95,31-181,74-489c11-72,5-101-20-101c-5,0-40-21-79-46c-84-54-305-160-475-228
			c-66-27-129-52-140-56c-260-106-486-187-725-260c-96-29-271-81-305-90c-40-11-241-67-285-80c-31-9-244-59-340-80
			c-19-4-84-17-145-29c-60-11-132-25-160-31c-70-14-343-46-505-59c-559-46-1354-32-2180,40c-93,8-415,59-625,99
			c-66,13-435,108-500,128c-77,25-281,99-320,117c-16,7-59,25-95,40s-83,35-105,44c-22,10-56,24-75,30c-35,13-69,26-105,42
			c-11,5-81,33-155,62l-135,53l1,59c0,33,8,110,17,170c22,143,43,334,66,585c18,205,31,323,36,328c14,14,168-150,227-243
			c49-77,71-129,82-190c9-45,40-85,68-85c10,0,28,10,39,21c19,19,21,29,16,84c-14,143-89,277-246,438c-109,112-200,193-581,517
			c-383,326-610,577-784,868c-229,382-383,851-416,1262c-26,332-19,910,15,1153c16,115,58,329,75,387c6,19,18,60,26,90
			c62,230,180,538,290,755c84,166,236,458,261,500c73,126,204,417,232,515c45,159,81,323,92,419c26,245,78,450,118,475
			c5,3,19-2,30-12c35-28,60-146,67-312c9-213-2-285-91-605c-29-105-32-157-9-180c41-40,90,10,125,129c22,74,96,279,129,356
			c10,25,33,81,50,125c47,117,100,218,168,320c96,144,183,215,265,215c130,0,134-172,10-480c-85-210-189-393-332-585
			c-54-72-68-112-51-144c15-29,57-27,105,6c54,37,73,59,172,208c98,146,144,195,299,317c140,109,211,155,268,170c45,12,46,12,81-22
			c42-40,59-96,52-162c-9-69-51-183-90-242c-41-60-155-178-247-256c-63-53-110-88-340-258c-206-151-286-303-250-473
			c21-98,91-181,217-255c140-84,316-242,353-320c31-64,36-141,12-180c-26-41-62-49-128-28c-113,35-326,259-426,446
			c-37,69-69,91-96,65c-21-21-21-81,0-122c31-61,31-84,1-113c-151-144-284-426-360-767c-35-154-37-169-41-395c-7-426,50-695,205-959
			c53-90,206-265,292-334c35-29,94-76,130-105c101-81,218-136,300-140c56-3,69-1,89,18c27,25,29,71,5,93c-10,8-40,21-68,28
			c-59,14-137,50-184,86l-34,26l7,126c6,127,16,293,36,626c15,233,1,787-30,1215c-4,63-4,119,0,124c4,4,29-4,54-19
			c101-59,204-69,281-27c134,74,155,276,46,438c-71,104-212,230-391,347c-87,57-86,56-98,140c-19,124-16,167,16,208
			c38,50,114,116,232,199c249,176,453,371,531,505c29,51,39,49,39-9c0-74,27-253,57-371c33-133,87-259,161-375
			c32-51,196-252,224-275c160-132,227-175,338-214c19-7,44-17,55-21c49-21,170-38,267-39c42-1,79-5,82-9c3-5-3-44-13-88
			c-51-218-68-429-52-631c17-207,60-483,90-573c5-14,17-54,26-90c25-93,54-192,64-215c5-11,15-36,22-55c101-280,255-538,423-706
			c225-225,444-274,643-145c165,107,272,351,314,721c12,105,6,451-10,540c-5,30-15,93-21,140c-7,47-25,139-40,205
			c-120,508-320,907-580,1152l-55,53l91,84c195,182,333,417,390,666c21,93,30,374,14,463c-30,174-93,345-164,450c-15,21-28,43-29,49
			c-1,7,51,11,153,12c143,2,183,7,325,38c97,21,310,96,420,147c317,148,451,233,649,411c113,101,246,257,246,288c0,5,7,15,15,22
			c11,9,30,3,97-33c106-57,230-101,366-129c152-31,437-30,637,2c233,38,212,39,226-12c18-65,68-206,95-266c24-52,29-72,19-72
			c-3,0-52,32-108,72c-120,84-206,128-303,157c-126,37-193,23-241-51c-107-168,112-535,421-700c58-32,172-83,254-114
			c190-73,227-90,287-135c92-68,135-131,135-198c0-77-92-226-196-319c-29-26-88-69-132-94c-153-91-266-221-312-357
			c-50-149-2-271,134-344c55-30,204-31,286-3c62,21,180,98,224,145c44,46,60,42,53-16c-12-97-18-491-21-1357l-2-889l-40-21
			c-120-64-142-93-110-141c13-20,25-25,59-25c79,0,243,97,343,201c260,274,392,604,435,1091c17,191-10,412-78,633
			c-67,220-139,407-229,591c-45,93-64,121-121,175c-44,41-72,77-78,99c-10,35-37,49-60,33c-6-5-41-54-79-110
			c-86-128-192-233-277-273c-138-64-274-47-318,39c-29,55-26,81,13,164c42,90,133,180,261,257c111,67,205,159,278,270
			c129,198,129,343,1,480c-59,63-177,138-279,178c-261,101-368,152-461,218c-147,104-274,294-274,409c0,44,17,52,79,36
			c126-32,254-118,476-321c277-252,283-257,331-274c43-14,50-14,71-1c39,26,30,63-28,120c-31,31-69,86-101,145c-28,52-68,129-91,170
			c-94,177-172,381-192,508c-4,23-4,71,0,105c6,51,13,67,39,93c80,80,216,37,291-91c27-45,83-193,110-290c61-215,200-513,276-591
			c68-70,101-33,65,71c-63,179-102,552-77,738c19,139,57,228,106,247C14167,14342,14227,14305,14261,14252z M15445,13896
			c110-17,110-17,325-77c258-72,380-130,554-261c132-100,213-193,336-388c146-231,199-350,315-695c53-158,75-239,118-425
			c81-349,136-908,123-1245c-4-93-9-226-11-295c-8-228-26-534-35-595c-5-33-12-114-15-180c-13-272-72-678-130-890c-9-33-20-73-25-90
			c-24-89-62-200-93-275c-133-323-144-345-241-500c-89-143-135-198-246-295c-130-114-173-145-290-205c-52-26-143-73-201-103
			c-183-94-460-170-682-187c-281-22-547-6-765,45c-37,9-87,20-112,26c-53,12-122,31-133,36c-4,2-2,14,4,26c43,79,167,216,474,522
			c194,193,387,393,430,445c82,100,116,130,151,130c40,0,287,133,374,202c95,74,235,215,298,298c22,30,56,89,76,130
			c32,69,117,291,152,400c8,25,19,54,24,65c4,11,11,31,15,45c3,14,12,48,20,75c53,197,102,637,112,1013c7,266-15,521-73,867
			c-40,243-44,259-116,455c-79,216-122,293-244,440c-216,261-362,367-588,427c-163,44-234,57-389,70c-74,6-79,8-106,42
			c-32,40-193,297-221,351c-46,91-121,377-124,472c-1,52,0,53,34,64c73,24,326,71,425,78C15060,13921,15355,13910,15445,13896z
			 M7832,13004c-2-10-9-26-16-35c-10-15-13-15-23,7c-9,20-8,27,4,40C7816,13035,7836,13029,7832,13004z M15228,12734
			c212-43,305-90,450-229c100-95,190-202,247-291c38-59,125-236,125-253c0-6,4-19,10-29c27-49,90-270,104-367c2-16,11-75,20-130
			c55-333,77-806,48-1045c-6-58-16-143-22-190c-17-148-39-304-49-345c-5-22-14-65-21-95c-39-179-64-269-114-405
			c-25-66-51-142-60-168c-40-119-117-230-227-328c-96-84-195-162-239-186c-38-21-80-35-80-26c0,3,18,35,41,70
			c126,200,260,534,339,843c49,194,67,308,81,530c10,148,9,204-4,360c-21,233-40,339-112,610c-19,69-59,222-90,340
			c-133,502-278,808-578,1219c-52,71-93,132-89,135C15020,12767,15106,12759,15228,12734z M14105,11540c110-257,170-438,211-635
			c36-174,40-306,15-500c-35-269-96-472-196-644c-50-87-173-244-184-236c-11,6-21,230-21,470c-1,236,19,1544,26,1680
			c7,159,10,163,51,80C14027,11717,14071,11620,14105,11540z M9751,11281c237-238,423-630,523-1101c82-389,82-819-1-1085
			c-53-171-162-309-266-340c-46-13-67-14-113-6c-164,31-367,224-500,476c-148,281-187,375-247,595c-39,141-40,143-67,300
			c-22,125-24,156-12,163c4,3,30-6,57-19c73-36,193-35,265,1c102,52,165,141,191,272c11,54,11,72-5,138c-43,182-185,295-355,283
			c-41-3-82-14-109-28c-24-12-46-20-49-16c-10,9,14,116,46,211l27,80l89,28c123,39,226,79,313,120c47,23,80,33,95,29
			C9645,11379,9698,11333,9751,11281z M6868,10907c36-44,41-57,51-136c6-48,11-119,11-157s8-159,17-269c21-245,23-1018,3-1275
			c-6-91-15-204-18-252c-10-131-16-131-127-16c-112,116-161,186-225,322c-96,202-138,453-126,771c9,257,42,437,121,651
			c71,193,205,420,241,412C6823,10956,6846,10933,6868,10907z M14262,5503c16-42,33-119,56-258c10-60,44-203,62-261
			c6-17,10-38,10-48c0-9,11-52,24-94s29-104,35-137c7-33,17-80,23-105c5-25,13-131,15-236c5-178,4-195-16-257c-22-65-95-181-155-245
			c-17-19-56-50-86-70c-60-38-294-152-314-152c-7,0-16-4-21-8c-29-25-545-215-700-257c-27-8-90-26-140-40c-412-118-605-153-1255-231
			c-74-8-211-26-305-39c-278-39-439-54-645-60c-107-3-287-10-400-15c-278-12-786-12-945,0c-71,6-197,15-280,20c-82,6-184,15-225,20
			c-145,18-421,56-505,70c-75,13-156,24-310,45c-66,8-145,20-175,25c-106,18-175,30-225,40c-27,5-90,15-140,21c-49,6-112,17-140,24
			c-27,8-61,17-75,20c-14,4-34,11-45,16c-27,12-298,99-308,99c-11,0-125,45-207,82c-164,74-296,199-338,320c-45,131-47,260-7,448
			c15,71,95,491,116,610c5,30,18,120,30,200s25,149,29,154c8,8,42-4,155-54c22-10,80-35,130-55c49-21,112-48,140-60
			c27-13,72-33,99-45c230-103,491-192,766-260c38-10,291-63,380-81c30-6,73-14,95-19s96-15,165-24c117-14,166-20,425-46
			c108-11,433-27,795-39c267-9,1064,3,1203,18c53,6,141,16,195,21c341,36,965,170,1347,291c17,5,111,34,210,64
			c275,83,560,187,910,333c91,37,414,205,465,241c30,22,58,39,63,40C14247,5530,14255,5518,14262,5503z"/>
		<path d="M8205,17574c-233-38-444-152-633-343c-169-171-261-336-333-596c-19-68-19-341,0-415c32-127,102-252,184-328
			c48-43,54-46,81-36s18,50-25,111c-76,109-111,206-129,362c-19,162,18,342,108,515c205,398,628,648,995,589c290-46,565-247,746-546
			c43-69,64-79,69-30s-53,175-122,267c-80,107-236,263-310,311c-67,43-169,88-266,117C8505,17571,8276,17585,8205,17574z"/>
		<path d="M11001,16717c-8-11,5-48,58-163c116-252,136-331,135-524c0-154-15-222-71-334c-50-99-86-150-167-235
			c-113-117-239-191-409-238c-113-31-387-22-482,17c-11,4-49,20-86,34c-176,71-293,192-349,362c-18,52-26,65-48,71
			c-59,14-81-81-42-186c65-179,192-297,423-392c126-52,194-63,387-64c122,0,189,4,220,14c114,35,137,44,199,73
			c233,111,436,339,519,583c41,124,46,158,46,310c0,182-18,255-98,420c-63,128-126,217-173,245C11023,16734,11016,16734,11001,16717
			z"/>
		<path d="M7950,14845c-76-21-225-95-298-149c-59-43-131-128-132-153c0-15,28-43,44-43c7,0,46,24,87,54c156,116,299,176,416,176
			c94,0,164-31,223-98c88-99,109-184,110-433c0-102,3-188,6-191c14-15,45,9,65,50c33,67,41,113,46,260c4,123,3,140-21,213
			c-44,136-129,240-243,295C8186,14859,8036,14868,7950,14845z"/>
		<path d="M11062,13278c-16-16-15-86,4-188c21-119,21-361,0-415c-16-39-19-41-99-62c-45-11-92-24-103-28c-20-6-22-2-28,77
			c-26,301-124,530-212,497c-37-13-36-49,1-163c71-212,92-369,71-524c-8-53-6-65,9-82c25-27,69-25,122,5c47,28,109,53,163,65
			c19,5,67,16,105,25c109,26,283,31,388,11c116-22,189-55,253-116c81-76,108-68,172,56c44,85,62,181,62,331c0,181-23,247-84,241
			c-48-5-56-32-55-203c1-129-7-210-26-263c-3-9-15-6-42,11c-41,25-115,60-150,71c-22,7-22,7-4,49c37,89,44,134,38,260
			c-9,202-53,294-139,288c-28-2-37-50-22-127c33-175,26-308-19-389l-22-39l-110,1h-110l-1,169c-1,185-12,266-51,362
			C11140,13279,11095,13311,11062,13278z"/>
		<path d="M11360,11950c-70-14-145-57-200-113c-78-82-105-124-161-252c-102-236-129-654-68-1060c13-85,58-290,88-400
			c103-374,286-727,488-941c252-268,541-303,741-90c69,75,119,166,165,306c58,175,70,271,71,550c1,144-4,284-12,340
			c-31,235-40,299-45,307c-4,5-18,54-32,109c-137,518-358,913-635,1136C11642,11937,11490,11978,11360,11950z M11526,11795
			c137-40,303-199,442-420c77-124,245-515,228-532c-4-4-48-7-99-8c-85,0-96-2-148-33c-188-108-243-336-127-529
			c90-151,294-202,442-112c27,17,54,28,61,25c24-9,34-320,15-445c-34-216-45-264-82-361c-27-70-99-181-141-216
			c-106-90-235-83-387,20c-103,70-256,257-348,426c-145,267-260,631-311,985c-24,168-34,388-22,510c25,261,74,437,157,560
			C11288,11790,11397,11834,11526,11795z"/>
		<path d="M11384,8339c-15-17-19-36-18-93c1-106,40-166,109-166c60,1,85,41,85,137c0,62-3,72-31,106c-27,33-35,37-78,37
			C11415,8360,11398,8355,11384,8339z"/>
		<path d="M12805,8300c-183-37-360-144-532-323c-48-51-106-106-128-123c-272-210-368-261-590-318c-242-61-302-69-505-68
			c-260,0-625,54-896,132c-77,22-157,45-179,51s-51,15-65,20c-25,8-243,62-401,99c-331,77-380,83-624,84c-188,1-245-2-310-17
			c-327-74-486-194-595-450c-63-148-75-231-61-401c17-197,53-307,144-441c78-115,179-206,333-303c447-281,587-353,829-427
			c50-15,109-34,131-41c71-22,234-51,354-63c454-43,578-38,1290,59c516,70,873,174,1253,365c316,159,538,315,747,525
			c250,250,399,480,456,702c25,97,23,292-4,395c-67,252-170,412-321,501C13054,8303,12912,8321,12805,8300z M13062,8137
			c105-61,190-191,243-372c73-246,28-463-149-724c-94-139-275-343-376-425c-90-74-280-206-296-206c-7,0-42,18-77,40
			c-118,74-326,142-537,176c-112,17-288,14-400-7c-257-50-476-123-536-180c-21-20-22-20-135,2c-103,20-133,21-314,15
			c-265-9-409-31-590-91c-38-13-115-37-170-55c-212-68-543-218-607-276c-37-33-37-33-75-17c-82,33-177,86-378,208
			c-323,195-415,267-494,383c-93,139-120,224-128,407c-5,124-3,149,16,219c73,264,228,405,516,465c80,17,135,21,283,21
			c102,0,214-5,251-11c255-42,526-104,888-203c261-71,379-96,643-135c217-32,523-39,669-16c124,20,351,78,451,114
			c168,62,390,210,596,401c264,243,378,303,569,297C13003,8165,13023,8160,13062,8137z M11958,6489c107-18,217-49,380-109
			c17-7,32-17,32-24c0-30-287-171-512-252c-74-26-281-84-301-84c-8,0-40,26-73,58c-92,91-205,176-313,236c-54,31-104,56-109,56
			c-6,0-12,6-14,12c-5,14,105,47,292,88C11542,6514,11767,6521,11958,6489z M10721,6339c233-30,406-100,593-241
			c97-73,126-101,114-113c-2-2-60-15-130-30c-125-25-329-53-753-104c-194-23-401-33-565-28c-296,9-435,30-672,104
			c-130,40-136,49-59,84c255,115,597,236,811,287C10240,6342,10553,6361,10721,6339z"/>
		<path d="M10891,8243c-28-35-34-63-29-124c6-62,34-101,81-113c52-13,92,6,111,55c28,69,17,130-32,182
			C10986,8281,10921,8282,10891,8243z"/>
		<path d="M13235,4828c-74-27-179-116-227-194c-49-79-72-153-72-234c0-79,12-108,67-163c17-17,16-20-21-75c-22-31-51-88-66-126
			c-24-60-27-80-24-155c4-100,23-138,88-171c78-40,235-17,386,56c132,62,301,204,288,239c-8,20-12,19-54-7c-105-64-229-128-251-128
			c-8,0-19-4-25-8c-12-11-107-39-172-52c-132-25-169,63-93,226c40,85,92,140,166,173c34,16,69,39,79,52c22,32,20,75-5,100
			c-28,28-86,21-134-15c-42-32-55-32-85-1c-20,22-22,31-18,89c4,43,15,83,34,122c37,74,152,194,186,194c46,0,64,43,30,73
			C13291,4842,13278,4843,13235,4828z"/>
		<path d="M7822,4531c-100-34-123-76-137-241c-3-41-14-169-25-285c-20-209-25-370-14-412c3-12,12-24,20-27c20-8,53,28,61,64l5,30
			l34-30c48-42,120-61,189-50c232,38,396,276,329,477c-9,26-27,63-41,81c-24,32-89,72-118,72c-24,0-28,24-11,65c22,51,20,81-8,142
			c-28,59-78,94-170,118c-31,8-58,15-59,15C7876,4549,7851,4541,7822,4531z M7971,4420c80-41,76-111-13-206c-50-53-59-68-54-89
			c7-28,44-42,73-26c11,5,42,13,69,16c59,7,89-6,122-55c21-31,23-43,19-101c-10-118-81-225-186-279c-29-14-59-20-107-20
			c-59,0-70,3-106,32l-40,32l6,80c3,45,10,133,15,196s10,183,10,267c1,175-1,172,94,173C7912,4440,7944,4433,7971,4420z"/>
		<path d="M11757,4362c-63-33-166-133-202-195c-77-134-107-324-70-451c47-160,157-236,344-236c87,0,99,3,166,35c40,19,86,49,103,67
			c54,54,38,80-30,50c-80-35-135-45-220-40c-126,7-183,43-218,135c-40,106-20,289,43,396s170,197,234,197c16,0,39,7,51,16
			c22,15,22,17,6,35C11937,4401,11820,4396,11757,4362z"/>
		<path d="M9917,4306c-28-14-57-21-72-18c-31,5-51-10-59-46c-11-47-40-513-38-621c1-109,13-141,53-141c10,0,41-15,70-32
			c48-30,59-33,128-32c61,0,87,6,133,28c130,62,209,199,194,339c-10,97-69,180-137,194c-34,6-35,17-11,64c12,24,17,57,17,110
			c0,64-4,81-25,111c-13,20-39,43-57,52C10062,4338,9973,4335,9917,4306z M10047,4230c32-11,53-45,53-83c-1-34-34-100-72-143
			c-41-45-51-76-34-100c11-14,23-16,74-10c117,13,171-39,158-151c-15-131-122-231-256-240c-54-4-71-1-99,17c-32,20-33,23-27,68
			c9,64,28,543,22,549c-14,14,18,62,52,76C9989,4243,10003,4245,10047,4230z"/>
		<path d="M12353,3985c-29-15-66-43-84-63c-42-47-79-128-79-172c1-79,66-160,130-160c37,1,103,33,148,75c98,88,108,261,19,320
			C12444,4013,12408,4013,12353,3985z M12438,3852c6-56-35-120-96-151c-18-10-27-10-38,0c-31,25-4,103,53,155
			C12405,3900,12434,3898,12438,3852z"/>
		<path d="M8455,3942c-42-26-102-95-119-136c-37-89-28-182,21-228c58-54,130-47,199,18l47,44l34-35c36-38,84-47,115-22
			c27,20,27,51,0,55s-45,37-61,117c-19,92-31,110-71,110c-34,0-37-3-71-75c-38-77-89-137-108-126c-16,10-13,78,4,119
			c20,49,68,102,105,117c23,9,30,18,28,34C8574,3963,8498,3968,8455,3942z"/>
		<path d="M9185,3933c-22-14-60-44-84-66c-44-40-60-39-61,6c0,20-32,23-48,4c-6-7-13-46-15-87c-3-41-11-114-18-162
			c-17-113-8-142,43-146c45-4,54,10,64,98c3,36,18,89,32,119c27,55,145,191,166,191c6,0,22,7,34,16c18,12,20,19,12,35
			C9295,3969,9235,3965,9185,3933z"/>
		<path d="M10495,3816c-163-74-208-305-71-370c64-30,143-12,225,54l38,29l29-30c54-57,125-76,176-46c58,32,56,67-4,67
			c-64,0-108,63-108,158c0,22-8,41-25,57c-43,44-79,30-123-48c-37-66-105-129-135-125c-18,2-23,11-25,45c-6,76,72,166,139,161
			c47-4,51,25,7,52C10577,3845,10557,3845,10495,3816z"/>
	</g>
</g>
<g id="Layer_8">
</g>
</svg>
